<svg>
<path id="adolfo-alsina:" d="M-376 -548L-381 -553L-380 -557L-384 -562L-386 -561L-420 -596L-419 -521L-394 -547L-386 -538L-385 -539z" /></path>
<path id="alberti:" d="M-292 -807L-299 -814L-312 -803L-311 -796L-314 -791L-305 -777L-300 -773L-303 -770L-302 -765L-291 -755L-272 -775L-274 -777L-279 -777L-284 -780L-281 -783L-298 -801z" /></path>
<path id="almirante-brown:" d="M43 -850L46 -855L39 -866L43 -869L38 -877L18 -861L27 -843z" /></path>
<path id="avellaneda:" d="M49 -894L37 -904L26 -898L28 -894L39 -883z" /></path>
<path id="ayacucho:" d="M-60 -446L-67 -438L-92 -461L-76 -477L-86 -489L-85 -491L-106 -510L-131 -481L-129 -476L-138 -471L-138 -469L-149 -461L-151 -454L-159 -452L-160 -445L-165 -440L-121 -400L-118 -403L-104 -390L-98 -397L-91 -391L-80 -402L-74 -397L-45 -431z" /></path>
<path id="azul:" d="M-201 -535L-214 -520L-223 -528L-230 -520L-232 -520L-250 -500L-241 -491L-253 -478L-260 -485L-262 -480L-248 -466L-250 -464L-250 -457L-258 -450L-256 -446L-259 -440L-259 -436L-266 -427L-246 -408L-251 -404L-243 -396L-235 -405L-230 -417L-221 -421L-209 -432L-206 -438L-204 -438L-201 -442L-197 -444L-193 -450L-189 -460L-189 -465L-183 -473L-180 -487L-169 -500L-180 -511L-178 -513L-183 -518z" /></path>
<path id="bahia-blanca:" d="M-410 -280L-413 -278L-419 -284L-422 -280L-424 -285L-428 -280L-429 -284L-437 -291L-448 -281L-448 -287L-451 -292L-461 -282L-465 -286L-485 -264L-484 -260L-476 -258L-472 -255L-471 -248L-468 -245L-462 -245L-455 -241L-445 -239L-436 -249L-430 -251L-422 -249L-416 -256L-413 -254L-406 -260L-411 -272z" /></path>
<path id="balcarce:" d="M-74 -397L-80 -402L-91 -391L-98 -397L-104 -390L-118 -403L-139 -381L-112 -354L-119 -346L-89 -317L-41 -367z" /></path>
<path id="san-pedro:" d="M-172 -804L-177 -803L-180 -806L-178 -812L-180 -813L-192 -811L-197 -813L-199 -815L-201 -822L-210 -805L-212 -797L-216 -791L-221 -789L-226 -781L-221 -771L-222 -768L-218 -764L-208 -764L-203 -772L-199 -768L-192 -776L-187 -779L-186 -783L-188 -788L-185 -791L-181 -790L-179 -794L-184 -798L-181 -802z" /></path>
<path id="arrecifes:" d="M-250 -801L-258 -803L-262 -810L-269 -797L-269 -781L-263 -775L-266 -761L-251 -753L-248 -756L-246 -773L-239 -774L-234 -777L-231 -781L-228 -781L-229 -782z" /></path>
<path id="berazategui:" d="M103 -811L86 -818L71 -821L58 -813L70 -804L74 -792L61 -780L68 -773L70 -778L91 -799z" /></path>
<path id="berisso:" d="M160 -778L131 -798L120 -783L125 -778L151 -768z" /></path>
<path id="bolivar:" d="M-289 -613L-299 -603L-305 -609L-341 -572L-338 -569L-367 -541L-356 -531L-361 -526L-347 -512L-336 -523L-325 -513L-291 -546L-294 -548L-289 -554L-289 -559L-284 -567L-284 -571L-280 -577L-268 -584L-259 -595L-269 -605L-274 -599z" /></path>
<path id="bragado:" d="M-253 -723L-259 -727L-264 -727L-267 -735L-273 -745L-276 -747L-283 -739L-280 -736L-285 -731L-277 -723L-288 -711L-279 -703L-290 -691L-258 -662L-240 -682L-243 -685L-244 -690L-241 -693L-246 -697L-255 -711L-252 -716z" /></path>
<path id="brandsen:" d="M-26 -690L-33 -682L-35 -683L-30 -689L-44 -701L-39 -707L-43 -710L-51 -702L-50 -701L-60 -691L-61 -692L-69 -683L-48 -662L-45 -664L-41 -660L-18 -682z" /></path>
<path id="campana:" d="M-89 -815L-98 -824L-117 -821L-120 -807L-119 -802L-129 -795L-112 -775L-110 -784L-106 -789L-99 -786L-99 -792L-93 -790L-92 -798L-97 -799L-102 -807L-101 -808z" /></path>
<path id="cañuelas:" d="M-87 -719L-98 -711L-100 -712L-114 -696L-108 -690L-110 -688L-103 -680L-99 -677L-97 -679L-91 -673L-93 -670L-82 -660L-76 -666L-81 -670L-71 -680L-81 -691L-83 -702L-79 -706L-85 -712L-84 -713z" /></path>
<path id="capitan-sarmiento:" d="M-181 -799L-185 -803L-184 -806L-189 -816L-188 -818L-194 -816L-197 -812L-202 -809L-209 -808L-211 -791L-214 -788L-208 -786L-201 -791L-200 -788L-191 -794z" /></path>
<path id="carlos-casares:" d="M-305 -609L-311 -615L-305 -622L-326 -645L-328 -643L-350 -665L-367 -648L-354 -635L-356 -633L-348 -625L-360 -613L-350 -604L-352 -602L-338 -588L-332 -594L-326 -588z" /></path>
<path id="carlos-tejedor:" d="M-417 -691L-419 -689L-435 -706L-442 -699L-448 -705L-454 -698L-451 -695L-453 -693L-457 -696L-474 -678L-471 -676L-474 -673L-469 -668L-471 -666L-466 -660L-464 -662L-423 -620L-401 -641L-404 -644L-397 -651L-392 -645L-384 -653L-413 -683L-412 -685z" /></path>
<path id="carmen-de-areco:" d="M-191 -794L-200 -788L-201 -791L-208 -786L-211 -781L-217 -776L-218 -777L-224 -772L-218 -766L-220 -765L-212 -758L-209 -761L-203 -756L-204 -754L-200 -749L-188 -760L-187 -765L-190 -768L-181 -774L-183 -786z" /></path>
<path id="patagones:" d="M-342 -124L-344 -123L-345 -125L-350 -125L-353 -128L-353 -130L-357 -133L-356 -135L-359 -139L-369 -143L-377 -143L-384 -146L-386 -149L-398 -154L-398 -71L-389 -71L-383 -68L-376 -62L-371 -55L-371 -52L-366 -52L-349 -62L-345 -71L-345 -75L-343 -76L-342 -79L-354 -87L-356 -96L-350 -105L-349 -122L-342 -122z" /></path>
<path id="castelli:" d="M-124 -359L-129 -357L-130 -354L-139 -354L-141 -349L-145 -348L-153 -342L-152 -341L-157 -336L-148 -328L-147 -330L-144 -329L-143 -335L-138 -333L-137 -339L-115 -333L-118 -335L-124 -346L-125 -354z" /></path>
<path id="colon:" d="M-304 -455L-299 -449L-294 -452L-285 -462L-287 -464L-283 -468L-285 -470L-281 -474L-285 -479L-285 -476L-293 -468z" /></path>
<path id="coronel-dorrego:" d="M-277 -212L-282 -208L-291 -214L-298 -214L-319 -197L-319 -195L-322 -192L-321 -183L-311 -176L-293 -176L-293 -173L-267 -177L-272 -197L-271 -201L-278 -209z" /></path>
<path id="coronel-pringles:" d="M-282 -235L-283 -234L-297 -249L-320 -226L-324 -221L-321 -215L-325 -205L-325 -200L-322 -192L-319 -195L-319 -197L-298 -214L-291 -214L-282 -208L-280 -209L-277 -212L-278 -218L-277 -224L-275 -225L-278 -230z" /></path>
<path id="coronel-de-marina-l-rosales:" d="M-322 -192L-323 -195L-327 -192L-328 -193L-331 -189L-338 -189L-342 -184L-338 -177L-336 -176L-326 -173L-322 -175L-316 -172L-310 -173L-310 -176L-321 -183L-322 -190z" /></path>
<path id="coronel-suarez:" d="M-317 -289L-321 -294L-324 -291L-325 -292L-331 -285L-333 -287L-354 -268L-337 -245L-339 -235L-335 -231L-331 -231L-324 -221L-312 -234L-317 -239L-309 -246L-314 -250L-311 -253L-316 -258L-314 -261L-323 -271L-321 -276L-323 -283z" /></path>
<path id="chacabuco:" d="M-269 -433L-275 -428L-273 -427L-278 -421L-270 -411L-265 -408L-259 -414L-255 -410L-252 -413L-253 -416L-249 -420L-247 -418L-244 -420L-242 -418L-239 -422L-241 -424L-240 -425L-243 -428L-245 -426L-250 -433L-253 -431L-255 -432L-258 -429L-261 -431L-262 -429L-266 -433L-267 -432z" /></path>
<path id="chascomus:" d="M-160 -352L-159 -356L-154 -361L-151 -359L-146 -363L-141 -359L-132 -356L-127 -357L-123 -360L-127 -365L-127 -372L-130 -374L-139 -373L-149 -380L-150 -379L-152 -382L-155 -381L-162 -376L-160 -374L-173 -360L-174 -357L-172 -357L-168 -352L-165 -355L-162 -354L-161 -352z" /></path>
<path id="chivilcoy:" d="M-190 -606L-192 -603L-196 -609L-201 -604L-204 -607L-212 -599L-211 -594L-223 -583L-206 -565L-209 -562L-204 -559L-199 -559L-193 -554L-186 -556L-179 -549L-159 -569L-168 -581L-172 -582L-177 -588L-175 -593z" /></path>
<path id="daireaux:" d="M-394 -430L-419 -406L-414 -400L-411 -402L-397 -387L-399 -384L-395 -380L-393 -383L-377 -366L-377 -360L-364 -345L-357 -352L-355 -350L-350 -355L-340 -344L-309 -375L-320 -385L-331 -374L-345 -388L-340 -393L-351 -403L-355 -399L-368 -414L-373 -411L-389 -430L-392 -427z" /></path>
<path id="dolores:" d="M40 -439L20 -445L17 -435L7 -437L4 -426L-1 -427L-2 -423L-10 -428L-12 -426L8 -408L4 -405L7 -402L1 -395L19 -375L42 -400L38 -403L47 -416L35 -419z" /></path>
<path id="ensenada:" d="M264 -747L250 -748L239 -758L227 -746L254 -732z" /></path>
<path id="escobar:" d="M114 -834L109 -842L119 -854L124 -872L113 -876L101 -878L101 -868L86 -873L78 -863L94 -839L100 -844L108 -830z" /></path>
<path id="esteban-etcheverria:" d="M164 -750L151 -771L148 -767L153 -725L167 -736L161 -748z" /></path>
<path id="exaltacion-de-la-cruz:" d="M75 -845L41 -886L3 -894L-8 -884L-9 -877L5 -872L2 -867L14 -858L23 -847L43 -828L50 -834L54 -843L61 -847L64 -853z" /></path>
<path id="florencio-varela:" d="M204 -720L197 -727L210 -739L206 -751L194 -760L182 -753L189 -742L186 -737L191 -730L185 -726L190 -717L191 -708z" /></path>
<path id="general-alvarado:" d="M62 -90L43 -70L37 -77L36 -56L42 -45L41 -40L44 -34L81 -52L87 -57L80 -81L77 -79L72 -84L70 -82z" /></path>
<path id="general-alvear:" d="M-136 -341L-158 -319L-161 -314L-164 -313L-173 -302L-179 -298L-167 -287L-163 -289L-148 -277L-142 -283L-138 -280L-124 -295L-113 -285L-111 -290L-101 -301L-103 -303L-97 -308L-90 -301L-81 -310L-79 -309L-72 -316L-89 -332L-101 -330L-105 -324L-108 -325L-121 -338L-127 -332z" /></path>
<path id="general-arenales:" d="M-217 -528L-225 -522L-237 -533L-258 -508L-266 -501L-262 -497L-257 -502L-254 -498L-250 -502L-242 -494L-244 -492L-237 -486L-231 -492L-225 -490L-225 -495L-222 -496L-215 -504L-213 -502L-208 -510L-203 -506L-199 -509z" /></path>
<path id="general-belgrano:" d="M22 -346L21 -342L9 -341L1 -344L-4 -341L-5 -347L-11 -349L-11 -352L-14 -354L-15 -359L-18 -355L-23 -359L-27 -359L-28 -356L-32 -357L-38 -354L-38 -351L-22 -334L-21 -335L-15 -331L0 -317L2 -311L14 -300L40 -329L36 -329L35 -331L29 -334L28 -337L25 -339L26 -344z" /></path>
<path id="general-guido:" d="M97 -232L80 -251L86 -258L83 -261L87 -264L67 -282L49 -262L57 -254L46 -242L56 -230L40 -214L65 -191L72 -199L66 -205L71 -211L69 -213L74 -219L76 -217L89 -230L93 -227z" /></path>
<path id="general-lamadrid:" d="M-208 -177L-246 -215L-273 -190L-270 -176L-274 -166L-255 -145L-260 -140L-250 -130L-255 -125L-247 -116L-261 -102L-253 -93L-213 -132L-212 -131L-195 -149L-204 -158L-196 -166z" /></path>
<path id="general-las-heras:" d="M-28 -451L-33 -456L-45 -441L-24 -423L-26 -421L-19 -414L-5 -429L-12 -436L-10 -437L-17 -444L-20 -444z" /></path>
<path id="general-lavalle:" d="M179 -274L178 -277L165 -276L156 -278L151 -270L153 -265L148 -263L127 -238L147 -219L156 -216L159 -210L159 -206L163 -204L162 -201L173 -198L183 -214L184 -218L183 -262L181 -273z" /></path>
<path id="general-juan-madariaga:" d="M173 -198L162 -201L163 -204L159 -206L159 -210L156 -216L147 -219L142 -224L136 -224L137 -211L128 -211L129 -199L112 -198L113 -188L106 -188L96 -177L138 -139L168 -188z" /></path>
<path id="general-paz:" d="M52 -380L50 -382L47 -380L26 -401L14 -388L19 -384L13 -378L23 -368L15 -359L20 -353L22 -346L26 -344L35 -352L52 -372L49 -376z" /></path>
<path id="general-pinto:" d="M-280 -494L-322 -494L-329 -464L-316 -461L-323 -454L-323 -444L-318 -444L-318 -439L-315 -439L-305 -428L-296 -438L-289 -431L-268 -452L-277 -461L-271 -467L-276 -472L-283 -465L-296 -479z" /></path>
<path id="general-pueyrredon:" d="M87 -57L94 -61L106 -73L109 -74L110 -85L108 -87L110 -97L94 -113L97 -114L91 -120L62 -90L70 -82L72 -84L77 -79L80 -81z" /></path>
<path id="general-rodriguez:" d="M-12 -460L-14 -462L-14 -472L-18 -478L-21 -477L-24 -472L-38 -463L-28 -451L-24 -452L-18 -458z" /></path>
<path id="general-san-martin:" d="M165 -675L158 -683L157 -679L155 -678L164 -672z" /></path>
<path id="san-miguel:" d="M301 -852L293 -859L286 -853L280 -855L270 -847L281 -836L299 -849z" /></path>
<path id="general-viamonte:" d="M-101 -796L-107 -801L-117 -791L-144 -817L-168 -792L-159 -782L-212 -730L-189 -707L-185 -711L-164 -690L-146 -707L-132 -694L-90 -740L-107 -756L-85 -780z" /></path>
<path id="general-villegas:" d="M-109 -826L-211 -825L-211 -715L-205 -721L-207 -723L-203 -727L-201 -725L-194 -732L-196 -734L-188 -743L-184 -739L-186 -736L-172 -722L-149 -746L-145 -743L-143 -745L-146 -748L-140 -755L-141 -798L-137 -800L-116 -796L-113 -806z" /></path>
<path id="adolfo-gonzales-chaves:" d="M127 -417L128 -419L103 -441L95 -433L91 -437L89 -434L74 -449L68 -443L59 -452L63 -456L56 -463L44 -452L46 -449L39 -442L38 -443L20 -425L30 -415L28 -414L47 -395L57 -405L55 -407L63 -416L95 -385L108 -399L112 -390L116 -394L117 -400L130 -414z" /></path>
<path id="guamini:" d="M-127 -594L-173 -548L-143 -518L-138 -520L-131 -510L-131 -506L-133 -503L-123 -492L-82 -531L-76 -526L-72 -533L-85 -548L-85 -554L-101 -571L-103 -568L-107 -572L-105 -575L-119 -590L-122 -588z" /></path>
<path id="hipolito-yrigoyen:" d="M-18 -638L-24 -644L-30 -638L-33 -641L-35 -639L-39 -643L-48 -633L-49 -635L-56 -629L-61 -627L-64 -630L-68 -627L-80 -615L-78 -613L-82 -608L-86 -611L-89 -609L-81 -599L-76 -602L-63 -587L-30 -619L-33 -622z" /></path>
<path id="benito-juarez:" d="M118 -504L115 -502L110 -490L102 -481L94 -489L99 -493L79 -512L59 -490L55 -493L52 -489L67 -476L55 -464L63 -456L59 -452L68 -443L74 -449L89 -434L91 -437L95 -433L103 -441L120 -427L128 -419L127 -417L154 -445L162 -450L168 -457L138 -485z" /></path>
<path id="junin:" d="M3 -837L0 -834L-2 -836L-9 -828L-12 -827L-12 -822L-18 -824L-26 -816L-19 -808L-24 -803L-12 -790L-14 -789L-7 -782L2 -792L16 -778L21 -784L23 -781L28 -786L25 -789L32 -797L28 -798L39 -809L15 -832L10 -830z" /></path>
<path id="la-matanza:" d="M310 -1003L305 -1008L290 -992L278 -976L270 -976L272 -966L268 -958L280 -946L288 -951L303 -981L312 -984L315 -988L322 -992z" /></path>
<path id="lanus:" d="M346 -987L335 -998L333 -1002L325 -996L331 -986L343 -984z" /></path>
<path id="la-plata:" d="M451 -932L425 -942L420 -947L431 -962L428 -964L418 -949L391 -963L370 -942L368 -937L355 -925L360 -915L377 -933L385 -926L375 -915L403 -890L393 -879L397 -876L411 -891z" /></path>
<path id="laprida:" d="M108 -871L84 -894L85 -896L76 -904L58 -887L70 -876L62 -868L71 -859L44 -832L73 -803L91 -821L92 -820L99 -827L97 -830L109 -841L108 -842L120 -854L105 -867z" /></path>
<path id="las-flores:" d="M268 -1021L266 -1027L251 -1041L245 -1045L244 -1044L228 -1061L230 -1058L225 -1054L225 -1051L219 -1046L211 -1046L207 -1044L199 -1045L190 -1040L182 -1039L177 -1042L194 -1026L191 -1022L206 -1008L197 -998L215 -981L223 -988L232 -993L232 -995L236 -998L246 -1001L256 -1007L257 -1010z" /></path>
<path id="leandro-n-alem:" d="M29 -1196L22 -1202L24 -1204L16 -1212L12 -1208L9 -1212L4 -1207L0 -1211L-6 -1204L-14 -1204L-30 -1189L-17 -1175L-10 -1182L1 -1171L5 -1172L12 -1179L20 -1171L34 -1186L27 -1194z" /></path>
<path id="lincoln:" d="M46 -1160L39 -1167L41 -1168L29 -1181L20 -1171L12 -1179L5 -1172L1 -1171L-5 -1177L-11 -1171L-2 -1162L-7 -1156L-23 -1141L-30 -1148L-48 -1130L-47 -1128L-56 -1119L-51 -1113L-52 -1111L-12 -1070L32 -1115L21 -1126L48 -1152L43 -1157z" /></path>
<path id="loberia:" d="M303 -787L279 -809L286 -817L259 -844L232 -815L232 -813L226 -808L226 -802L231 -795L235 -793L239 -785L249 -773L254 -761L262 -751L261 -749L266 -735L268 -737L275 -731L286 -733L310 -744L307 -750L308 -755L302 -766L302 -775z" /></path>
<path id="lobos:" d="M247 -1124L240 -1131L242 -1133L235 -1139L221 -1125L191 -1107L192 -1104L201 -1101L206 -1102L207 -1098L217 -1091L223 -1091L229 -1087L239 -1096L241 -1094L244 -1097L248 -1097L258 -1108L251 -1116L253 -1118z" /></path>
<path id="lomas-de-zamora:" d="M539 -1383L527 -1385L521 -1395L518 -1391L511 -1387L524 -1366L541 -1380z" /></path>
<path id="lujan:" d="M410 -1450L403 -1444L383 -1463L375 -1453L379 -1447L357 -1433L371 -1410L375 -1396L373 -1394L389 -1368L403 -1388L394 -1400L421 -1418L427 -1429L417 -1438z" /></path>
<path id="magdalena:" d="M735 -1274L730 -1279L722 -1292L705 -1305L692 -1319L680 -1323L664 -1339L656 -1341L607 -1290L622 -1276L595 -1248L604 -1251L612 -1240L616 -1241L638 -1225L652 -1244L659 -1239L672 -1248L663 -1258L669 -1263L678 -1255L675 -1243L680 -1241L695 -1254L686 -1256L696 -1267L702 -1261L709 -1268L713 -1264z" /></path>
<path id="maipu:" d="M571 -1152L559 -1163L537 -1141L533 -1144L520 -1131L518 -1133L513 -1127L515 -1125L510 -1119L531 -1098L540 -1091L550 -1102L557 -1102L556 -1112L573 -1113L572 -1125L581 -1125L580 -1138L586 -1138z" /></path>
<path id="mar-chiquita:" d="M554 -1011L558 -1021L584 -1051L531 -1098L502 -1064L541 -1028L538 -1027z" /></path>
<path id="marcos-paz:" d="M433 -1374L426 -1372L420 -1366L416 -1365L424 -1358L427 -1358L434 -1351L432 -1350L441 -1343L448 -1349L441 -1355L443 -1359L442 -1364L433 -1372z" /></path>
<path id="mercedes:" d="M404 -1361L396 -1374L397 -1375L395 -1381L388 -1393L372 -1384L368 -1388L362 -1382L358 -1385L354 -1381L371 -1365L374 -1360L372 -1358L377 -1353L382 -1357L385 -1351L393 -1359L394 -1357L400 -1362z" /></path>
<path id="merlo:" d="M543 -1616L532 -1628L527 -1622L509 -1616L509 -1612L528 -1596L536 -1596L548 -1612z" /></path>
<path id="monte:" d="M516 -1492L496 -1470L487 -1471L481 -1465L477 -1468L458 -1449L477 -1441L479 -1432L472 -1426L478 -1414L486 -1415L495 -1407L500 -1414L503 -1404L510 -1401L510 -1394L520 -1389L524 -1379L533 -1385L543 -1383L549 -1379L572 -1380L575 -1388L571 -1401L560 -1414L578 -1432L543 -1467L534 -1472L539 -1478L527 -1490L523 -1485z" /></path>
<path id="moreno:" d="M509 -1616L527 -1622L532 -1628L534 -1634L514 -1656L509 -1645L502 -1640L504 -1619L507 -1616z" /></path>
<path id="moron:" d="M563 -1628L552 -1638L551 -1628L545 -1628L543 -1616L548 -1612z" /></path>
<path id="navarro:" d="M450 -1591L444 -1592L431 -1582L429 -1585L413 -1571L407 -1581L367 -1555L372 -1547L331 -1506L340 -1506L350 -1496L360 -1495L365 -1501L375 -1504L382 -1500L381 -1491L413 -1510L418 -1515L441 -1527L468 -1555L442 -1578L451 -1589z" /></path>
<path id="necochea:" d="M527 -1125L520 -1131L518 -1129L513 -1143L514 -1145L503 -1160L501 -1167L491 -1179L487 -1187L483 -1189L478 -1196L478 -1202L484 -1207L484 -1209L479 -1219L478 -1223L480 -1228L477 -1233L467 -1222L459 -1217L432 -1189L437 -1184L472 -1171L466 -1165L461 -1154L465 -1144L457 -1136L462 -1131L463 -1126L453 -1121L457 -1117L463 -1105L484 -1109L519 -1122z" /></path>
<path id="9-de-julio:" d="M355 -1484L323 -1513L313 -1502L306 -1509L297 -1500L286 -1511L263 -1487L285 -1465L287 -1467L308 -1444L302 -1437L314 -1425L362 -1476z" /></path>
<path id="olavarria:" d="M388 -1337L377 -1347L373 -1344L359 -1358L363 -1361L343 -1379L336 -1373L334 -1376L323 -1366L322 -1368L272 -1319L310 -1281L328 -1298L337 -1290L336 -1288L364 -1262L378 -1276L391 -1293L391 -1297L394 -1303L392 -1307L400 -1314L400 -1321L402 -1323L394 -1331z" /></path>
<path id="pehuajo:" d="M229 -1475L221 -1467L216 -1473L209 -1466L212 -1463L181 -1433L214 -1400L203 -1390L205 -1387L208 -1390L216 -1381L219 -1383L223 -1380L227 -1385L225 -1387L241 -1402L244 -1399L249 -1401L256 -1407L257 -1405L266 -1415L270 -1411L272 -1413L261 -1424L263 -1426L253 -1435L265 -1447L257 -1455L259 -1457L246 -1470L240 -1464z" /></path>
<path id="pellegrini:" d="M112 -1414L111 -1413L94 -1431L94 -1360L104 -1348L125 -1371L123 -1372L133 -1384L131 -1386L135 -1390z" /></path>
<path id="pergamino:" d="M361 -1684L361 -1680L354 -1679L346 -1681L343 -1685L331 -1687L328 -1690L325 -1690L320 -1685L329 -1676L320 -1667L324 -1664L316 -1656L329 -1644L330 -1645L346 -1627L350 -1627L356 -1624L358 -1621L372 -1638L375 -1640L381 -1638L381 -1654L385 -1660L390 -1673L387 -1676L374 -1678L373 -1675L368 -1680z" /></path>
<path id="pila:" d="M584 -1413L581 -1416L583 -1423L578 -1422L574 -1424L570 -1432L567 -1433L565 -1437L561 -1438L532 -1404L520 -1415L509 -1404L508 -1401L515 -1394L513 -1392L530 -1376L532 -1378L565 -1348L575 -1358L567 -1366L588 -1389L576 -1400L581 -1403L587 -1410z" /></path>
<path id="pilar:" d="M503 -1606L501 -1597L495 -1601L494 -1598L490 -1596L488 -1592L492 -1585L497 -1581L500 -1582L504 -1576L507 -1578L510 -1584L518 -1590L513 -1596L510 -1594z" /></path>
<path id="pinamar:" d="M680 -1282L683 -1282L694 -1300L691 -1302L686 -1292z" /></path>
<path id="puan:" d="M163 -1246L162 -1245L147 -1262L96 -1211L94 -1213L94 -1092L161 -1159L154 -1166L161 -1174L147 -1189L154 -1195L139 -1210L155 -1225L154 -1229L168 -1241z" /></path>
<path id="quilmes:" d="M728 -1765L723 -1774L698 -1791L673 -1764L687 -1740L702 -1749z" /></path>
<path id="ramallo:" d="M414 -1804L413 -1809L405 -1812L403 -1815L392 -1818L387 -1826L381 -1829L380 -1817L382 -1813L377 -1804L368 -1796L381 -1794L384 -1791L382 -1785L386 -1778L394 -1776L390 -1782L393 -1783L413 -1804z" /></path>
<path id="rauch:" d="M417 -1559L405 -1570L403 -1568L386 -1584L388 -1586L381 -1593L371 -1587L361 -1584L357 -1581L357 -1579L348 -1574L340 -1567L345 -1562L343 -1560L354 -1549L343 -1536L340 -1522L334 -1514L358 -1489L363 -1494L364 -1501L372 -1503L374 -1510L385 -1518L385 -1520L394 -1525L392 -1530z" /></path>
<path id="rivadavia:" d="M12 -1692L6 -1686L-8 -1700L-6 -1703L-10 -1707L-18 -1698L-16 -1696L-23 -1689L-25 -1691L-29 -1687L-27 -1685L-33 -1679L-33 -1623L-16 -1605L37 -1660L22 -1676L20 -1674L15 -1680L17 -1682L12 -1687L15 -1690z" /></path>
<path id="rojas:" d="M231 -1813L229 -1816L223 -1819L219 -1819L203 -1837L202 -1836L193 -1844L180 -1828L174 -1824L192 -1805L188 -1802L183 -1806L181 -1801L188 -1794L193 -1796L214 -1776L225 -1787L225 -1802L233 -1810z" /></path>
<path id="roque-perez:" d="M354 -1673L348 -1677L342 -1677L332 -1684L331 -1688L326 -1687L321 -1689L313 -1681L308 -1685L301 -1679L298 -1682L291 -1676L296 -1671L296 -1668L303 -1668L304 -1670L319 -1670L321 -1666L333 -1661L328 -1655L350 -1637L350 -1640L355 -1644L353 -1650L359 -1653L363 -1652L364 -1655L362 -1661L365 -1664L364 -1669z" /></path>
<path id="saavedra:" d="M27 -1387L41 -1373L49 -1381L62 -1367L63 -1370L68 -1373L84 -1390L90 -1410L55 -1456L36 -1438L41 -1433L27 -1421L28 -1417L12 -1402z" /></path>
<path id="saladillo:" d="M350 -1637L328 -1655L333 -1661L321 -1666L319 -1670L304 -1670L303 -1668L298 -1669L290 -1665L284 -1667L273 -1660L275 -1656L272 -1645L269 -1643L264 -1647L255 -1637L264 -1628L270 -1634L283 -1621L286 -1620L290 -1626L302 -1628L307 -1625L315 -1626L324 -1631L332 -1630L336 -1632L344 -1632z" /></path>
<path id="salliquelo:" d="M20 -1527L-9 -1555L-23 -1540L5 -1512z" /></path>
<path id="salto:" d="M254 -1830L248 -1832L245 -1830L231 -1813L233 -1810L225 -1802L225 -1787L228 -1783L231 -1786L239 -1779L241 -1782L246 -1777L253 -1784L256 -1781L275 -1795L278 -1800L257 -1810L260 -1824z" /></path>
<path id="san-andres-de-giles:" d="M348 -1790L338 -1800L339 -1803L332 -1805L327 -1799L317 -1793L308 -1785L305 -1788L296 -1782L299 -1779L298 -1774L309 -1764L315 -1770L319 -1766L335 -1775L346 -1782L344 -1785z" /></path>
<path id="san-antonio-de-areco:" d="M338 -1814L341 -1815L342 -1821L339 -1825L337 -1832L336 -1828L331 -1825L324 -1817L320 -1821L315 -1813L309 -1814L295 -1808L303 -1800L305 -1788L308 -1785L326 -1799L332 -1805L332 -1808z" /></path>
<path id="san-cayetano:" d="M336 -1297L330 -1309L326 -1313L336 -1318L335 -1323L330 -1328L338 -1336L334 -1346L339 -1357L345 -1363L310 -1376L308 -1378L295 -1364L294 -1358L290 -1354L291 -1353L276 -1338L281 -1334L282 -1336L287 -1330L282 -1324L286 -1320L292 -1326L300 -1319L304 -1302L307 -1300L310 -1291L331 -1295z" /></path>
<path id="san-fernando:" d="M410 -1798L412 -1803L420 -1803L424 -1812L422 -1814L424 -1831L416 -1832L400 -1827L397 -1829L384 -1821L389 -1813L394 -1812L393 -1804L398 -1802z" /></path>
<path id="san-isidro:" d="M384 -1993L370 -2012L342 -1994L342 -1991L357 -1975z" /></path>
<path id="san-nicolas:" d="M146 -2068L144 -2073L139 -2077L136 -2071L133 -2069L131 -2061L125 -2056L123 -2045L120 -2041L132 -2032L136 -2039L142 -2043L147 -2052L145 -2056L145 -2062z" /></path>
<path id="san-pedro:" d="M208 -2036L203 -2036L197 -2030L193 -2038L185 -2038L179 -2043L158 -2022L155 -2021L159 -2015L181 -1995L188 -2003L193 -2005L197 -2011L199 -2019z" /></path>
<path id="san-vicente:" d="M318 -1886L318 -1890L315 -1895L301 -1885L301 -1892L299 -1894L293 -1889L293 -1885L289 -1881L292 -1868L301 -1859L311 -1871L312 -1870L322 -1880L321 -1881z" /></path>
<path id="suipacha:" d="M191 -1932L184 -1939L166 -1923L181 -1910L179 -1905L184 -1899L188 -1898L195 -1890L210 -1900L205 -1905L207 -1907L204 -1912L187 -1928z" /></path>
<path id="tandil:" d="M244 -1654L220 -1679L220 -1674L212 -1658L208 -1656L205 -1652L203 -1652L200 -1646L188 -1635L182 -1633L232 -1586L236 -1590L239 -1585L237 -1580L238 -1576L243 -1566L288 -1614L254 -1646z" /></path>
<path id="tapalque:" d="M202 -1773L198 -1770L196 -1771L187 -1762L180 -1769L174 -1764L176 -1762L166 -1751L164 -1746L153 -1756L139 -1741L135 -1744L129 -1738L114 -1750L110 -1748L98 -1759L92 -1756L88 -1750L88 -1746L83 -1738L83 -1733L78 -1727L82 -1723L93 -1733L95 -1730L102 -1736L122 -1718L118 -1715L132 -1701L136 -1704L147 -1694L149 -1699L156 -1692L168 -1705L159 -1714L177 -1734L179 -1734L186 -1742L195 -1734L217 -1759z" /></path>
<path id="tigre:" d="M296 -1963L284 -1967L282 -1959L277 -1953L285 -1941L289 -1938L290 -1947L293 -1949L296 -1948L301 -1957z" /></path>
<path id="tornquist:" d="M1 -1527L-4 -1539L-12 -1546L-22 -1547L-30 -1555L-46 -1538L-51 -1535L-52 -1532L-65 -1546L-73 -1538L-87 -1552L-94 -1546L-80 -1531L-87 -1523L-80 -1516L-102 -1494L-87 -1479L-79 -1486L-76 -1478L-56 -1500L-52 -1496L-42 -1506L-39 -1501L-39 -1495L-28 -1505L-20 -1498L-19 -1494L-15 -1499L-13 -1494L-10 -1498L-4 -1492L2 -1498L3 -1507L7 -1515z" /></path>
<path id="trenque-lauquen:" d="M-51 -1799L-77 -1825L-129 -1771L-79 -1719L-76 -1710L-58 -1729L-27 -1757L-60 -1790z" /></path>
<path id="tordillo:" d="M433 -1739L418 -1750L396 -1756L391 -1736L403 -1733L394 -1720L398 -1717L392 -1710L404 -1699L425 -1724L430 -1726L428 -1731L431 -1736z" /></path>
<path id="tres-arroyos:" d="M176 -1519L172 -1528L159 -1514L127 -1545L119 -1536L121 -1534L111 -1524L99 -1536L96 -1533L93 -1520L94 -1504L102 -1495L107 -1486L107 -1481L105 -1478L115 -1440L123 -1440L151 -1447L169 -1449L196 -1456L193 -1465L190 -1467L186 -1484L178 -1491L172 -1485L168 -1489L173 -1495L168 -1501L167 -1499L162 -1503L177 -1518z" /></path>
<path id="tres-de-febrero:" d="M658 -1977L647 -1970L690 -1930L692 -1955L678 -1957z" /></path>
<path id="la-costa:" d="M750 -1699L762 -1717L762 -1734L757 -1778L753 -1777L755 -1776L757 -1765L758 -1721L757 -1717L747 -1701z" /></path>
<path id="monte-hermoso:" d="M360 -1474L360 -1478L339 -1478L337 -1482L326 -1482L326 -1473L332 -1474L353 -1472z" /></path>
<path id="25-de-mayo:" d="M474 -1908L467 -1915L460 -1913L456 -1916L437 -1896L429 -1903L411 -1883L418 -1875L380 -1834L395 -1820L400 -1826L410 -1816L413 -1817L416 -1822L447 -1854L452 -1850L455 -1852L458 -1863L456 -1867L467 -1874L473 -1872L479 -1875L479 -1878L474 -1883L481 -1889L484 -1886L491 -1892L496 -1888L504 -1896L500 -1897L500 -1905L496 -1907L488 -1903L483 -1903L479 -1908z" /></path>
<path id="vicente-lopes:" d="M1099 -2093L1116 -2109L1110 -2128L1083 -2110z" /></path>
<path id="villa-gesell:" d="M1150 -1814L1147 -1814L1123 -1775L1125 -1773L1134 -1785L1150 -1812z" /></path>
<path id="villarino:" d="M632 -1653L629 -1661L621 -1654L606 -1669L568 -1632L561 -1624L561 -1575L663 -1575L664 -1578L658 -1582L656 -1597L660 -1602L659 -1609L656 -1613L658 -1617L651 -1627L656 -1633L649 -1634L646 -1637L645 -1644L641 -1647L633 -1649z" /></path>
<path id="zarate:" d="M975 -2177L970 -2183L963 -2186L962 -2189L956 -2190L949 -2188L945 -2193L936 -2191L933 -2187L938 -2183L936 -2179L932 -2180L929 -2177L933 -2165L936 -2161L935 -2155L932 -2154L951 -2149L961 -2156L960 -2161L963 -2175L973 -2176z" /></path>
<path id="tres-lomas:" d="M632 -1885L629 -1894L602 -1922L598 -1918L600 -1916L590 -1904L592 -1903L585 -1895L614 -1867L621 -1875z" /></path>
<path id="florentino-ameghino:" d="M656 -2100L635 -2104L631 -2102L632 -2059L638 -2053L645 -2060L661 -2043L672 -2054L671 -2056L680 -2064L670 -2075L667 -2075L667 -2080L662 -2080L662 -2090L669 -2097z" /></path>
<path id="presidente-peron:" d="M1023 -2070L1026 -2072L1023 -2075L1016 -2071L1014 -2074L1007 -2069L1009 -2067L1009 -2060L1013 -2064z" /></path>
<path id="jose-c-paz:" d="M1115 -2296L1125 -2304L1114 -2314L1106 -2307z" /></path>
<path id="malvinas-argentinas:" d="M1128 -2322L1114 -2314L1125 -2304L1131 -2302L1138 -2308z" /></path>
<path id="punta-indio:" d="M1376 -2037L1385 -2053L1400 -2072L1415 -2096L1415 -2108L1399 -2131L1396 -2140L1389 -2146L1367 -2136L1363 -2140L1356 -2133L1350 -2139L1340 -2128L1349 -2126L1334 -2113L1329 -2115L1332 -2127L1323 -2135L1317 -2130L1326 -2120L1313 -2111L1306 -2116L1292 -2097L1302 -2091L1313 -2089L1335 -2095L1337 -2092L1348 -2092L1359 -2083L1354 -2066L1358 -2056L1368 -2046L1368 -2039z" /></path>
<path id="ezeiza:" d="M1167 -2213L1162 -2255L1153 -2252L1138 -2222L1146 -2209L1143 -2206L1155 -2196L1155 -2203z" /></path>
<path id="ituzaingo:" d="M1135 -2267L1137 -2279L1130 -2288L1126 -2285L1124 -2279z" /></path>
<path id="hurlingham:" d="M1139 -2295L1130 -2288L1137 -2279L1143 -2279L1144 -2289z" /></path>
<path id="lezama:" d="M1227 -2003L1236 -1988L1243 -1983L1253 -1985L1250 -1971L1255 -1965L1263 -1967L1273 -1978L1286 -1987L1304 -1990L1309 -2011L1317 -2009L1331 -2011L1335 -2006L1347 -2013L1350 -2018L1340 -2019L1329 -2025L1314 -2025L1301 -2029L1282 -2046L1275 -2044L1261 -2029L1252 -2037L1233 -2019z" /></path>
<path id="baradero:" d="M1366 -2416L1361 -2415L1358 -2418L1360 -2424L1358 -2425L1346 -2423L1341 -2425L1339 -2427L1337 -2434L1328 -2417L1326 -2409L1322 -2403L1317 -2401L1312 -2393L1317 -2383L1316 -2380L1320 -2376L1330 -2376L1335 -2384L1339 -2380L1346 -2388L1351 -2391L1352 -2395L1350 -2400L1353 -2403L1357 -2402L1359 -2406L1354 -2410L1357 -2414z" /></path>
</svg>